{"asset":{"version":"2.0","generator":"babylon.js glTF exporter for 3ds max 2015 v1.4.2"},"scene":0,"scenes":[{"nodes":[0,1],"extensions":{}}],"nodes":[{"mesh":0,"translation":[-0.0008707531,0.0,4.47642924E-05],"rotation":[0.0,0.0,0.0,1.0],"scale":[1.0,1.0,1.0],"name":"yuanhuan"},{"translation":[0.0,0.0,0.0],"rotation":[0.0,0.0,0.0,1.0],"scale":[1.0,1.0,1.0],"name":"Default light"}],"meshes":[{"primitives":[{"attributes":{"POSITION":1,"NORMAL":2,"TEXCOORD_0":3},"indices":0,"mode":4,"material":0}],"name":"yuanhuan"}],"accessors":[{"bufferView":0,"componentType":5123,"count":864,"type":"SCALAR","name":"accessorIndices"},{"bufferView":1,"componentType":5126,"count":864,"max":[0.0519618578,0.0325353853,0.0519618578],"min":[-0.0519618578,0.0,-0.0519618578],"type":"VEC3","name":"accessorPositions"},{"bufferView":1,"byteOffset":10368,"componentType":5126,"count":864,"type":"VEC3","name":"accessorNormals"},{"bufferView":2,"componentType":5126,"count":864,"type":"VEC2","name":"accessorUVs"}],"bufferViews":[{"buffer":0,"byteLength":1728,"name":"bufferViewScalar"},{"buffer":0,"byteOffset":1728,"byteLength":20736,"byteStride":12,"name":"bufferViewFloatVec3"},{"buffer":0,"byteOffset":22464,"byteLength":6912,"byteStride":8,"name":"bufferViewFloatVec2"}],"buffers":[{"uri":"yuanhuan.bin","byteLength":29376}],"materials":[{"pbrMetallicRoughness":{"baseColorFactor":[0.5,0.5,0.5,1.0],"baseColorTexture":{"index":0,"texCoord":0},"metallicFactor":0.0,"roughnessFactor":0.450053632},"emissiveFactor":[0.0,0.0,0.0],"alphaMode":"BLEND","name":"Material #25"}],"textures":[{"sampler":0,"source":0,"name":"yuanhuan_TEX.jpg"}],"images":[{"uri":"yuanhuan_TEX.jpg"}],"samplers":[{"magFilter":9729,"minFilter":9987,"wrapS":10497,"wrapT":10497}]}